<svg xmlns="http://www.w3.org/2000/svg" width="500" height="500" xmlns:xlink="http://www.w3.org/1999/xlink"><rect x="0" y="0" width="500" height="500" fill="none"></rect><polygon points="121.4832,250 192.9663,291.2708 192.9663,373.8125 121.4832,415.0833 50,373.8125 50,291.2708" fill="#9155f2" stroke="#000000" stroke-width="0"></polygon><polygon points="50,373.8125 50,291.2708 121.4832,326.0691 121.4832,415.0833" id="left 1" fill="#5d2fa8" stroke="#bd2828" stroke-width="0"></polygon><defs><filter id="filter-335"><feDropShadow dx="0" dy="0" flood-color="rgb(85,52,138)" stdDeviation="0"></feDropShadow></filter><filter id="filter-339"><feDropShadow dx="0" dy="0" flood-color="rgb(85,52,138)" stdDeviation="0"></feDropShadow></filter><filter id="filter-343"><feDropShadow dx="0" dy="0" flood-color="rgb(85,52,138)" stdDeviation="0"></feDropShadow></filter></defs><polygon points="192.9663,373.6997 192.9663,291.2708 121.4832,326.0691 121.4832,415.0833" id="right 1" fill="#4f1e9e" stroke="#bd2828" stroke-width="0" filter="url(#filter-335)"></polygon><polygon points="378.5168,250 450,291.2708 450,373.8125 378.5168,415.0833 307.0337,373.8125 307.0337,291.2708" id="top 1" fill="#9155f2" stroke="#000000" stroke-width="0"></polygon><polygon points="307.0337,373.8125 307.0337,291.2708 378.5168,326.0691 378.5168,415.0833" id="left 1" fill="#5d2fa8" stroke="#bd2828" stroke-width="0"></polygon><polygon points="450,373.6997 450,291.2708 378.5168,326.0691 378.5168,415.0833" id="right 1" fill="#4f1e9e" stroke="#bd2828" stroke-width="0" filter="url(#filter-339)"></polygon><polygon points="249.1936,100 320.6768,141.2708 320.6768,223.8125 249.1936,265.0833 177.7104,223.8125 177.7104,141.2708" id="main 1" fill="#9155f2" stroke="#000000" stroke-width="0"></polygon><polygon points="177.7104,223.8125 177.7104,141.2708 249.1936,176.0691 249.1936,265.0833" id="left 1" fill="#5d2fa8" stroke="#bd2828" stroke-width="0"></polygon><polygon points="320.6768,223.6997 320.6768,141.2708 249.1936,176.0691 249.1936,265.0833" id="right 1" fill="#6434b3" stroke="#bd2828" stroke-width="0" filter="url(#filter-343)"></polygon><path d="" fill="#ffffff" stroke="#000000"></path><path d="" fill="#430e99" stroke="#000000"></path><path d="M213.452,200c-49.8979,3.1944 -91.7434,32.7965 -91.9688,89.733" fill="none" stroke="#4710a1" stroke-width="11" stroke-linecap="round" stroke-linejoin="round"></path><path d="M285.9468,200c49.8978,3.1944 91.7434,32.7965 91.9688,89.733" fill="none" stroke="#4710a1" stroke-width="11" stroke-linecap="round" stroke-linejoin="round"></path></svg>