<svg xmlns="http://www.w3.org/2000/svg" width="1106" height="322" xmlns:xlink="http://www.w3.org/1999/xlink"><rect x="0" y="0" width="1106.3791" height="322.227" fill="none"></rect><polygon points="76.4669,155.2385 147.95,196.5093 147.95,279.051 76.4669,320.3218 4.9837,279.051 4.9837,196.5093" fill="#9155f2" stroke="#000000" stroke-width="0"></polygon><polygon points="4.9837,279.051 4.9837,196.5093 76.4669,231.3077 76.4669,320.3218" id="left 1" fill="#5d2fa8" stroke="#bd2828" stroke-width="0"></polygon><defs><filter id="filter-117"><feDropShadow dx="0" dy="0" flood-color="rgb(85,52,138)" stdDeviation="0"></feDropShadow></filter><filter id="filter-121"><feDropShadow dx="0" dy="0" flood-color="rgb(85,52,138)" stdDeviation="0"></feDropShadow></filter><filter id="filter-125"><feDropShadow dx="0" dy="0" flood-color="rgb(85,52,138)" stdDeviation="0"></feDropShadow></filter></defs><polygon points="147.95,278.9382 147.95,196.5093 76.4669,231.3077 76.4669,320.3218" id="right 1" fill="#4f1e9e" stroke="#bd2828" stroke-width="0" filter="url(#filter-117)"></polygon><polygon points="333.5005,155.2385 404.9837,196.5093 404.9837,279.051 333.5005,320.3218 262.0174,279.051 262.0174,196.5093" id="top 1" fill="#9155f2" stroke="#000000" stroke-width="0"></polygon><polygon points="262.0174,279.051 262.0174,196.5093 333.5005,231.3077 333.5005,320.3218" id="left 1" fill="#5d2fa8" stroke="#bd2828" stroke-width="0"></polygon><polygon points="404.9837,278.9382 404.9837,196.5093 333.5005,231.3077 333.5005,320.3218" id="right 1" fill="#4f1e9e" stroke="#bd2828" stroke-width="0" filter="url(#filter-121)"></polygon><polygon points="204.1773,5.2385 275.6604,46.5093 275.6604,129.051 204.1773,170.3218 132.6941,129.051 132.6941,46.5093" id="main 1" fill="#9155f2" stroke="#000000" stroke-width="0"></polygon><polygon points="132.6941,129.051 132.6941,46.5093 204.1773,81.3077 204.1773,170.3218" id="left 1" fill="#5d2fa8" stroke="#bd2828" stroke-width="0"></polygon><polygon points="275.6604,128.9382 275.6604,46.5093 204.1773,81.3077 204.1773,170.3218" id="right 1" fill="#6434b3" stroke="#bd2828" stroke-width="0" filter="url(#filter-125)"></polygon><path d="" fill="#ffffff" stroke="#000000"></path><path d="" fill="#430e99" stroke="#000000"></path><path d="M168.4357,105.2385c-49.8978,3.1944 -91.7434,32.7965 -91.9688,89.733" fill="none" stroke="#4710a1" stroke-width="11" stroke-linecap="round" stroke-linejoin="round"></path><path d="M240.9305,105.2385c49.8979,3.1944 91.7434,32.7965 91.9688,89.733" fill="none" stroke="#4710a1" stroke-width="11" stroke-linecap="round" stroke-linejoin="round"></path><text x="473.9554" y="207.2385" fill="#9155f2" font-family="Poppins" font-weight="900" font-size="150" text-anchor="start">FLUXIFY</text></svg>